# xmcd
# 
# Track frame offsets:
#     150
#     14415
#     29586
#     44681
#     60291
#     73264
#     89604
#     106380
#     124617
#     143171
#     161812
#     184654
#     206306
#     223054
# 
# Disc length: 3166
# 
# Revision: 1
# Processed by: cddbd v1.5.2PL0 Copyright (c) Steve Scherf et al.
# Submitted via: BonkEnc v1.0.6
# 
DISCID=d00c5c0e
DTITLE=Fairplay - Musiker
DYEAR=2002
DGENRE=Country
TTITLE0=Soundcheck
TTITLE1=Alt wie ein Baum
TTITLE2=Tegel Prison Blues
TTITLE3=Der Bankpräsident
TTITLE4=Help me melk it through the night
TTITLE5=10 kleine Cowboys
TTITLE6=Für den Anfang gar nicht schlecht
TTITLE7=Segler aus Papier
TTITLE8=Sehnsucht
TTITLE9=Hallo Barkeeper
TTITLE10=Sturmflut
TTITLE11=Spiel mir das Lied (E. Morricone Medley)
TTITLE12=Atemlos
TTITLE13=Gute Nacht
EXTD=YEAR: 2002
EXTT0=
EXTT1=
EXTT2=
EXTT3=
EXTT4=
EXTT5=
EXTT6=
EXTT7=
EXTT8=
EXTT9=
EXTT10=
EXTT11=
EXTT12=
EXTT13=
PLAYORDER=
